<svg width="124" height="35" viewBox="0 0 124 35" fill="none" xmlns="http://www.w3.org/2000/svg">
<path d="M62.7133 21.042H56.6587L69.7005 5.3877L66.3338 17.9632H71.641L59.2712 33.885L62.7133 21.042Z" fill="white"/>
<path d="M70.2353 18.6491H65.4354L68.2331 8.21973L58.1191 20.3564H63.6047L60.8139 30.7789L70.2353 18.6491Z" fill="url(#paint0_linear_3828_24758)"/>
<path fill-rule="evenodd" clip-rule="evenodd" d="M35.8702 18.4492C35.8702 17.2501 36.8907 16.2041 38.1663 16.2041C39.4419 16.2041 40.4113 17.2501 40.4113 18.4492C40.4113 19.6482 39.3909 20.7452 38.1663 20.7452C36.9417 20.7452 35.8702 19.6993 35.8702 18.4492ZM35.9212 21.9953H40.3348V33.8584H35.9212V21.9953ZM4.41358 18.1186H0V33.8595H4.43909V29.6756L6.07186 27.8897L10.1283 33.8595H15.4348L9.15882 24.7007L14.9756 18.1186H9.72008L4.41358 24.3435V18.1186ZM19.6193 22.022H15.3843H15.3333L19.4152 33.8851H23.3441L24.9003 27.7877L26.5076 33.8851H30.4364L34.4673 22.022H30.2323L28.4975 27.9408L26.7372 22.022H23.1145L21.3796 27.9408L19.6193 22.022ZM50.3607 33.8588H55.3101V33.8333L51.0751 27.0981L55.2335 21.9957H50.2842L47.2227 26.1797V17.8373H42.8092V33.8588H47.2227V31.1291L48.1922 29.93L50.3607 33.8588Z" fill="white"/>
<path fill-rule="evenodd" clip-rule="evenodd" d="M80.8569 18.0986H73.2959V33.8839H77.7507V29.1307H80.8569C84.3943 29.1307 86.9035 26.8535 86.9035 23.6147C86.9035 20.3758 84.3943 18.0986 80.8569 18.0986ZM82.294 23.6147C82.294 24.4658 81.5423 25.0849 80.4811 25.0849H77.7507V22.1444H80.4811C81.5312 22.1444 82.294 22.7635 82.294 23.6147ZM99.7045 33.8839V26.8976C99.7045 23.6588 97.2173 21.7464 94.2106 21.7464C92.2208 21.7464 90.4522 22.3212 88.7941 23.1503L90.1537 25.8365C91.1486 25.328 91.9003 25.0295 93.0278 25.0295C94.3985 25.0295 95.4597 25.7149 95.4597 26.8866V26.9529C94.6085 26.6102 93.7353 26.4223 92.9504 26.4223C90.0874 26.4223 87.8324 28.1357 87.8324 30.3687C87.8324 32.6016 89.8553 34.1602 92.4088 34.1602C93.5252 34.1602 94.6528 33.7733 95.4597 33.0327V33.8839H99.7045ZM95.4597 29.2411V30.3687H95.4708C95.3713 31.054 94.5533 31.5404 93.4921 31.5404C92.6409 31.5404 92.044 31.0208 92.044 30.2581C92.044 29.4512 92.6851 28.8763 93.5805 28.8763C94.2659 28.8763 95.0507 29.0311 95.4597 29.2411ZM101.03 32.359L102.688 29.6729C103.838 30.4798 105.54 31.0767 106.801 31.0767C107.63 31.0767 107.928 30.8667 107.928 30.4798C107.928 30.0708 107.243 29.8387 106.137 29.6065L106.133 29.6056C103.979 29.1416 101.561 28.6209 101.561 25.815C101.561 23.5157 103.418 21.7249 106.524 21.7249C108.359 21.7249 110.128 22.3882 111.487 23.2836L109.995 25.9918C109.011 25.3507 107.652 24.7317 106.524 24.7317C105.905 24.7317 105.485 25.0522 105.485 25.3949C105.485 25.7429 105.914 25.8405 106.869 26.0576C106.976 26.0819 107.089 26.1077 107.21 26.1355C109.365 26.6219 111.852 27.3294 111.852 30.1371C111.852 32.5912 109.896 34.1608 106.679 34.1608C104.612 34.1608 102.478 33.4976 101.03 32.3701V32.359ZM114.308 29.6729L112.65 32.359V32.3701C114.098 33.4976 116.232 34.1608 118.299 34.1608C121.515 34.1608 123.472 32.5912 123.472 30.1371C123.472 27.3294 120.985 26.6219 118.829 26.1355C118.709 26.1077 118.596 26.0819 118.489 26.0576C117.534 25.8405 117.105 25.7429 117.105 25.3949C117.105 25.0522 117.525 24.7317 118.144 24.7317C119.271 24.7317 120.631 25.3507 121.615 25.9918L123.107 23.2836C121.748 22.3882 119.979 21.7249 118.144 21.7249C115.038 21.7249 113.181 23.5157 113.181 25.815C113.181 28.6209 115.598 29.1416 117.753 29.6056L117.757 29.6065C118.862 29.8387 119.548 30.0708 119.548 30.4798C119.548 30.8667 119.249 31.0767 118.42 31.0767C117.16 31.0767 115.458 30.4798 114.308 29.6729Z" fill="white"/>
<path d="M47.5279 9.30085C47.3853 9.30085 47.2553 9.28914 47.1382 9.26571C47.0211 9.24441 46.9337 9.22099 46.8762 9.19543L47.1062 8.41274C47.2809 8.45959 47.4364 8.47982 47.5727 8.47343C47.709 8.46704 47.8293 8.41593 47.9337 8.32009C48.0402 8.22425 48.1339 8.06771 48.2148 7.85047L48.333 7.52462L46.5376 2.55371H47.5599L48.8026 6.36176H48.8537L50.0965 2.55371H51.1219L49.0997 8.11563C49.006 8.3712 48.8867 8.58738 48.7419 8.76415C48.5971 8.94305 48.4246 9.07723 48.2244 9.16668C48.0242 9.25613 47.792 9.30085 47.5279 9.30085Z" fill="white"/>
<path d="M41.3921 7.46065V0.917969H42.3473V3.34911H42.4048C42.4602 3.24688 42.54 3.12868 42.6444 2.9945C42.7488 2.86033 42.8936 2.74319 43.0789 2.64309C43.2642 2.54086 43.5091 2.48975 43.8136 2.48975C44.2098 2.48975 44.5633 2.58985 44.8743 2.79005C45.1852 2.99024 45.4291 3.27883 45.6059 3.6558C45.7848 4.03277 45.8742 4.48641 45.8742 5.01673C45.8742 5.54704 45.7858 6.00175 45.6091 6.38085C45.4323 6.75782 45.1895 7.04854 44.8807 7.253C44.5718 7.45533 44.2194 7.55649 43.8232 7.55649C43.5251 7.55649 43.2812 7.50644 43.0917 7.40634C42.9042 7.30624 42.7573 7.18911 42.6508 7.05493C42.5443 6.92075 42.4623 6.80149 42.4048 6.69713H42.3249V7.46065H41.3921ZM42.3281 5.00715C42.3281 5.35217 42.3782 5.6546 42.4783 5.91443C42.5784 6.17426 42.7232 6.37766 42.9127 6.52461C43.1023 6.66944 43.3344 6.74185 43.6092 6.74185C43.8946 6.74185 44.1331 6.66624 44.3248 6.51503C44.5165 6.36169 44.6613 6.15403 44.7593 5.89207C44.8594 5.63011 44.9094 5.33513 44.9094 5.00715C44.9094 4.68342 44.8604 4.3927 44.7625 4.135C44.6666 3.8773 44.5218 3.6739 44.328 3.52482C44.1363 3.37573 43.8967 3.30119 43.6092 3.30119C43.3323 3.30119 43.098 3.37254 42.9064 3.51524C42.7168 3.65793 42.5731 3.85706 42.4751 4.11264C42.3771 4.36821 42.3281 4.66638 42.3281 5.00715Z" fill="white"/>
<path d="M34.8522 7.55649C34.4561 7.55649 34.1026 7.45533 33.7916 7.253C33.4828 7.04854 33.24 6.75782 33.0632 6.38085C32.8886 6.00175 32.8013 5.54704 32.8013 5.01673C32.8013 4.48641 32.8897 4.03277 33.0664 3.6558C33.2453 3.27883 33.4903 2.99024 33.8012 2.79005C34.1121 2.58985 34.4646 2.48975 34.8586 2.48975C35.1632 2.48975 35.4081 2.54086 35.5934 2.64309C35.7808 2.74319 35.9257 2.86033 36.0279 2.9945C36.1322 3.12868 36.2132 3.24688 36.2707 3.34911H36.3282V0.917969H37.2834V7.46065H36.3505V6.69713H36.2707C36.2132 6.80149 36.1301 6.92075 36.0215 7.05493C35.915 7.18911 35.7681 7.30624 35.5806 7.40634C35.3932 7.50644 35.1504 7.55649 34.8522 7.55649ZM35.0631 6.74185C35.3378 6.74185 35.57 6.66944 35.7595 6.52461C35.9512 6.37766 36.096 6.17426 36.194 5.91443C36.2941 5.6546 36.3442 5.35217 36.3442 5.00715C36.3442 4.66638 36.2952 4.36821 36.1972 4.11264C36.0992 3.85706 35.9555 3.65793 35.7659 3.51524C35.5764 3.37254 35.3421 3.30119 35.0631 3.30119C34.7756 3.30119 34.536 3.37573 34.3443 3.52482C34.1526 3.6739 34.0078 3.8773 33.9098 4.135C33.814 4.3927 33.7661 4.68342 33.7661 5.00715C33.7661 5.33513 33.815 5.63011 33.913 5.89207C34.011 6.15403 34.1558 6.36169 34.3475 6.51503C34.5413 6.66624 34.7798 6.74185 35.0631 6.74185Z" fill="white"/>
<path d="M29.7064 7.56017C29.2229 7.56017 28.8066 7.45688 28.4573 7.25029C28.1101 7.04157 27.8418 6.74873 27.6522 6.37176C27.4648 5.99266 27.3711 5.5486 27.3711 5.03958C27.3711 4.53695 27.4648 4.09396 27.6522 3.7106C27.8418 3.32724 28.1059 3.028 28.4445 2.8129C28.7853 2.59779 29.1835 2.49023 29.6393 2.49023C29.9162 2.49023 30.1845 2.53602 30.4444 2.6276C30.7042 2.71919 30.9374 2.86295 31.144 3.05889C31.3506 3.25482 31.5135 3.50933 31.6328 3.82241C31.752 4.13336 31.8117 4.51139 31.8117 4.95652V5.29515H27.911V4.57955H30.8756C30.8756 4.32823 30.8245 4.10567 30.7223 3.91186C30.6201 3.71592 30.4763 3.56151 30.291 3.44863C30.1079 3.33576 29.8928 3.27932 29.6457 3.27932C29.3773 3.27932 29.1431 3.34534 28.9429 3.47739C28.7448 3.6073 28.5915 3.77769 28.4828 3.98853C28.3764 4.19725 28.3231 4.42407 28.3231 4.669V5.22807C28.3231 5.55605 28.3806 5.83505 28.4956 6.06507C28.6128 6.29509 28.7757 6.47079 28.9844 6.59219C29.1931 6.71146 29.437 6.77109 29.716 6.77109C29.897 6.77109 30.0621 6.74553 30.2112 6.69442C30.3602 6.64117 30.4891 6.56237 30.5977 6.45801C30.7063 6.35365 30.7894 6.2248 30.8469 6.07146L31.751 6.23439C31.6786 6.50061 31.5487 6.73382 31.3612 6.93402C31.1759 7.13209 30.9427 7.2865 30.6616 7.39725C30.3826 7.50587 30.0642 7.56017 29.7064 7.56017Z" fill="white"/>
<path d="M24.1704 7.46096V2.55395H25.0937V3.33345H25.1448C25.2342 3.06935 25.3918 2.8617 25.6176 2.71048C25.8455 2.55714 26.1032 2.48047 26.3907 2.48047C26.4503 2.48047 26.5206 2.4826 26.6016 2.48686C26.6846 2.49112 26.7496 2.49644 26.7964 2.50283V3.41651C26.7581 3.40586 26.6899 3.39414 26.592 3.38137C26.494 3.36646 26.396 3.359 26.2981 3.359C26.0723 3.359 25.871 3.40692 25.6943 3.50276C25.5196 3.59647 25.3812 3.72745 25.279 3.89571C25.1767 4.06183 25.1256 4.25138 25.1256 4.46436V7.46096H24.1704Z" fill="white"/>
<path d="M20.8622 7.56017C20.3787 7.56017 19.9623 7.45688 19.613 7.25029C19.2659 7.04157 18.9975 6.74873 18.808 6.37176C18.6206 5.99266 18.5269 5.5486 18.5269 5.03958C18.5269 4.53695 18.6206 4.09396 18.808 3.7106C18.9975 3.32724 19.2616 3.028 19.6003 2.8129C19.941 2.59779 20.3393 2.49023 20.7951 2.49023C21.0719 2.49023 21.3403 2.53602 21.6001 2.6276C21.86 2.71919 22.0932 2.86295 22.2998 3.05889C22.5063 3.25482 22.6693 3.50933 22.7885 3.82241C22.9078 4.13336 22.9674 4.51139 22.9674 4.95652V5.29515H19.0668V4.57955H22.0314C22.0314 4.32823 21.9803 4.10567 21.8781 3.91186C21.7758 3.71592 21.6321 3.56151 21.4468 3.44863C21.2636 3.33576 21.0485 3.27932 20.8015 3.27932C20.5331 3.27932 20.2988 3.34534 20.0986 3.47739C19.9006 3.6073 19.7472 3.77769 19.6386 3.98853C19.5321 4.19725 19.4789 4.42407 19.4789 4.669V5.22807C19.4789 5.55605 19.5364 5.83505 19.6514 6.06507C19.7685 6.29509 19.9314 6.47079 20.1402 6.59219C20.3489 6.71146 20.5927 6.77109 20.8717 6.77109C21.0528 6.77109 21.2178 6.74553 21.3669 6.69442C21.516 6.64117 21.6449 6.56237 21.7535 6.45801C21.8621 6.35365 21.9452 6.2248 22.0027 6.07146L22.9067 6.23439C22.8343 6.50061 22.7044 6.73382 22.517 6.93402C22.3317 7.13209 22.0985 7.2865 21.8174 7.39725C21.5384 7.50587 21.22 7.56017 20.8622 7.56017Z" fill="white"/>
<path d="M12.3922 7.46072L10.9482 2.55371H11.9354L12.897 6.1573H12.9449L13.9097 2.55371H14.8969L15.8553 6.14132H15.9032L16.8584 2.55371H17.8455L16.4047 7.46072H15.4304L14.4336 3.91783H14.3601L13.3634 7.46072H12.3922Z" fill="white"/>
<path d="M7.98025 7.56017C7.52022 7.56017 7.11876 7.45475 6.77586 7.2439C6.43297 7.03305 6.16675 6.73808 5.9772 6.35898C5.78765 5.97988 5.69287 5.53688 5.69287 5.03C5.69287 4.52098 5.78765 4.07585 5.9772 3.69462C6.16675 3.31339 6.43297 3.01735 6.77586 2.80651C7.11876 2.59566 7.52022 2.49023 7.98025 2.49023C8.44029 2.49023 8.84175 2.59566 9.18464 2.80651C9.52754 3.01735 9.79376 3.31339 9.98331 3.69462C10.1729 4.07585 10.2676 4.52098 10.2676 5.03C10.2676 5.53688 10.1729 5.97988 9.98331 6.35898C9.79376 6.73808 9.52754 7.03305 9.18464 7.2439C8.84175 7.45475 8.44029 7.56017 7.98025 7.56017ZM7.98345 6.75831C8.28162 6.75831 8.52867 6.67951 8.72461 6.52191C8.92055 6.3643 9.06538 6.15452 9.15909 5.89256C9.25493 5.63059 9.30285 5.34201 9.30285 5.0268C9.30285 4.71372 9.25493 4.4262 9.15909 4.16424C9.06538 3.90015 8.92055 3.68823 8.72461 3.5285C8.52867 3.36877 8.28162 3.2889 7.98345 3.2889C7.68315 3.2889 7.43397 3.36877 7.2359 3.5285C7.03996 3.68823 6.89407 3.90015 6.79823 4.16424C6.70452 4.4262 6.65766 4.71372 6.65766 5.0268C6.65766 5.34201 6.70452 5.63059 6.79823 5.89256C6.89407 6.15452 7.03996 6.3643 7.2359 6.52191C7.43397 6.67951 7.68315 6.75831 7.98345 6.75831Z" fill="white"/>
<path d="M0.15332 7.46065V0.917969H2.48543C2.99445 0.917969 3.41614 1.01061 3.75052 1.19591C4.08489 1.3812 4.33514 1.63464 4.50127 1.95624C4.66739 2.2757 4.75045 2.63564 4.75045 3.03603C4.75045 3.43856 4.66632 3.80063 4.49807 4.12222C4.33195 4.44169 4.08063 4.69513 3.74413 4.88255C3.40975 5.06784 2.98912 5.16049 2.48223 5.16049H0.87851V4.32349H2.39278C2.71438 4.32349 2.97528 4.26811 3.17548 4.15736C3.37568 4.04449 3.52263 3.89114 3.61634 3.69733C3.71005 3.50352 3.75691 3.28309 3.75691 3.03603C3.75691 2.78898 3.71005 2.56961 3.61634 2.37793C3.52263 2.18625 3.37461 2.0361 3.17228 1.92748C2.97208 1.81887 2.70799 1.76456 2.38 1.76456H1.14047V7.46065H0.15332Z" fill="white"/>
<defs>
<linearGradient id="paint0_linear_3828_24758" x1="64.1806" y1="14.9806" x2="64.1806" y2="26.3082" gradientUnits="userSpaceOnUse">
<stop stop-color="#FFD100"/>
<stop offset="1" stop-color="#FEA200"/>
</linearGradient>
</defs>
</svg>
